<?xml version="1.0" standalone="no"?>
<!DOCTYPE svg PUBLIC "-//W3C//DTD SVG 20010904//EN"
 "http://www.w3.org/TR/2001/REC-SVG-20010904/DTD/svg10.dtd">
<svg version="1.0" xmlns="http://www.w3.org/2000/svg"
 width="900.000000pt" height="500.000000pt" viewBox="0 0 900.000000 500.000000"
 preserveAspectRatio="xMidYMid meet">

<g transform="translate(0.000000,500.000000) scale(0.100000,-0.100000)"
fill="#009745" stroke="none">
<path d="M2854 4778 c-31 -62 -177 -349 -324 -638 -1204 -2365 -1480 -2909
-1480 -2914 0 -3 1272 -6 2828 -6 l2827 0 211 413 c117 226 527 1024 911 1772
385 748 714 1388 732 1423 l31 62 -2840 0 -2840 0 -56 -112z m4843 -182 c141
-72 197 -232 130 -368 -102 -208 -388 -211 -494 -4 -38 73 -38 171 -1 241 35
67 90 117 155 141 49 18 167 13 210 -10z m-1832 4 c242 -20 467 -68 669 -142
320 -117 570 -308 752 -573 62 -91 146 -249 137 -259 -3 -3 -122 -6 -263 -6
l-257 0 -67 80 c-305 361 -771 515 -1453 481 -917 -47 -1637 -317 -2116 -795
l-102 -101 2108 -3 c1159 -1 2107 -5 2107 -10 0 -17 -148 -277 -224 -392 -171
-259 -440 -554 -666 -729 -466 -362 -1031 -588 -1679 -671 -496 -64 -981 -37
-1375 76 -509 147 -865 419 -1055 806 -27 57 -53 115 -56 130 l-7 28 300 0
300 0 41 -83 c84 -170 213 -299 391 -391 110 -57 205 -89 360 -120 175 -35
329 -46 622 -46 266 0 415 13 603 51 550 114 1118 423 1575 858 l95 90 -2127
1 -2127 0 15 36 c8 20 38 77 66 127 337 611 952 1084 1750 1346 330 108 692
180 1057 210 144 12 481 12 626 1z"/>
<path fill="#009745" d="M7505 4521 c-76 -35 -115 -95 -115 -177 0 -82 37 -139 115 -175 51
-24 99 -24 150 0 76 35 115 95 115 176 0 24 -5 56 -11 72 -24 64 -109 123
-179 123 -19 0 -53 -9 -75 -19z m140 -66 c20 -8 39 -24 44 -37 10 -28 -5 -65
-31 -74 -18 -5 -17 -9 12 -60 16 -29 30 -56 30 -59 0 -4 -17 -5 -37 -3 -34 3
-41 8 -65 53 l-28 50 0 -52 0 -53 -35 0 -35 0 0 125 0 125 55 0 c31 0 71 -7
90 -15z"/>
<path d="M7560 4405 c0 -28 4 -35 19 -35 11 0 27 7 35 16 22 21 4 54 -29 54
-22 0 -25 -4 -25 -35z"/>
<path fill="#000000" d="M897 686 c-55 -15 -127 -78 -158 -138 -25 -48 -24 -121 1 -177 27
-58 26 -96 -2 -115 -18 -13 -51 -16 -155 -16 l-133 0 -30 -60 -30 -60 157 0
c180 1 220 7 277 47 92 65 127 166 91 263 -32 89 -34 97 -19 118 18 27 58 34
117 23 l48 -9 30 61 c24 47 28 62 17 68 -20 13 -156 9 -211 -5z"/>
<path fill="#000000" d="M1090 453 c-74 -130 -148 -258 -163 -285 l-28 -48 193 2 192 3 33 55
c18 30 33 58 33 63 0 4 -47 7 -105 7 -58 0 -105 2 -105 4 0 2 11 24 25 47 l24
44 98 5 98 5 33 55 33 55 -100 3 -100 3 28 47 27 47 112 3 112 3 30 52 c16 29
30 55 30 60 0 4 -82 7 -182 7 l-183 -1 -135 -236z"/>
<path fill="#000000" d="M1520 428 c-79 -145 -150 -273 -158 -286 l-15 -23 73 3 73 3 125 223
125 222 52 0 c40 0 56 -5 71 -21 17 -18 17 -23 4 -46 -23 -40 -61 -63 -117
-69 l-51 -7 -29 -151 -28 -151 74 -3 c40 -2 75 -2 76 0 2 2 9 58 16 125 l12
122 43 16 c129 49 221 213 156 277 -21 22 -32 23 -190 26 l-168 3 -144 -263z"/>
<path fill="#000000" d="M2100 685 c0 -7 -110 -528 -116 -547 -5 -16 3 -18 78 -18 l83 0 159
168 c88 92 208 217 268 278 59 61 108 114 108 117 0 4 -35 7 -77 7 l-78 0
-174 -190 c-96 -104 -176 -188 -178 -186 -2 2 15 85 37 185 22 99 40 183 40
186 0 3 -34 5 -75 5 -41 0 -75 -2 -75 -5z"/>
<path fill="#000000" d="M2585 414 c-88 -151 -161 -279 -163 -285 -2 -5 31 -9 76 -9 l80 0
161 280 c89 154 161 282 161 285 0 3 -35 5 -77 5 l-78 0 -160 -276z"/>
<path fill="#000000" d="M2956 668 c-8 -13 -82 -141 -165 -285 l-150 -263 194 0 193 0 31 57
c17 31 31 60 31 65 0 4 -48 8 -106 8 l-105 0 28 50 28 50 96 0 96 0 29 52 c16
29 31 56 32 60 2 5 -39 8 -92 8 -53 0 -96 3 -96 7 0 3 11 26 25 50 l26 43 112
0 112 0 32 60 32 60 -184 0 c-180 0 -185 -1 -199 -22z"/>
<path fill="#000000" d="M3241 410 c-83 -154 -151 -283 -151 -285 0 -3 28 -5 63 -5 l62 0 95
167 95 168 3 -168 2 -168 93 3 92 3 128 230 c71 127 141 254 158 283 l29 52
-68 0 -67 0 -99 -165 c-54 -91 -101 -165 -104 -165 -3 0 -2 74 1 165 l6 165
-94 0 -93 0 -151 -280z"/>
<path fill="#000000" d="M3926 628 l-35 -63 69 -3 c39 -2 70 -5 70 -7 0 -2 -56 -100 -125
-217 l-125 -213 77 -3 c42 -2 80 1 85 6 5 5 62 103 126 218 l118 209 76 3 76
3 31 58 c17 32 31 62 31 65 0 3 -99 6 -219 6 l-220 0 -35 -62z"/>
<path fill="#000000" d="M4453 678 c-9 -12 -294 -532 -301 -550 -2 -4 27 -8 65 -8 l69 0 125
225 124 224 48 1 c60 0 87 -14 87 -44 0 -47 -74 -96 -147 -96 -12 0 -24 -8
-27 -17 -5 -18 -56 -279 -56 -288 0 -3 33 -5 74 -5 86 0 81 -6 91 115 10 129
10 129 67 156 90 42 167 139 168 211 0 76 -29 88 -223 88 -112 0 -157 -3 -164
-12z"/>
<path fill="#000000" d="M4794 414 c-87 -152 -161 -281 -162 -286 -2 -5 81 -7 189 -6 l193 3
32 55 c18 30 33 58 34 63 0 4 -49 7 -110 7 l-110 0 31 50 31 50 94 0 94 0 30
53 c16 28 30 55 30 59 0 4 -43 9 -95 10 l-94 3 29 48 30 47 108 0 109 0 29 52
c16 29 31 56 32 60 2 5 -79 8 -181 8 l-184 0 -159 -276z"/>
<path fill="#000000" d="M5530 674 c-110 -30 -187 -73 -254 -145 -110 -116 -175 -287 -136
-358 20 -39 85 -61 181 -61 91 0 196 15 216 32 11 9 163 283 163 294 0 2 -43
4 -95 4 l-94 0 -31 -44 c-36 -53 -36 -56 -10 -56 23 0 24 -1 8 -52 -13 -45
-36 -58 -99 -58 -51 0 -82 29 -73 68 18 77 115 201 185 238 47 24 187 32 227
11 l30 -15 27 65 c15 35 26 65 24 67 -34 28 -182 33 -269 10z"/>
<path fill="#000000" d="M5846 404 l-280 -284 80 0 81 0 77 85 78 85 95 0 96 0 -7 -32 c-3
-18 -9 -56 -13 -85 l-6 -53 71 0 70 0 7 52 c3 29 8 65 11 80 l6 28 106 0 107
0 28 50 c15 28 27 52 27 55 0 3 -54 5 -120 5 l-120 0 6 38 c3 20 13 88 23 150
l18 112 -81 -1 -81 -2 -279 -283z m271 109 c-3 -5 -10 -34 -17 -65 l-11 -58
-50 0 c-27 0 -49 3 -49 7 0 10 113 123 123 123 4 0 6 -3 4 -7z"/>
</g>
</svg>
